<!-- Generated by IcoMoon.io -->
<svg version="1.1" xmlns="http://www.w3.org/2000/svg" width="480" height="448" viewBox="0 0 480 448">
<title></title>
<g id="icomoon-ignore">
</g>
<path fill="#000" d="M154.25 349.75l-12.5 12.5c-3.25 3.25-8.25 3.25-11.5 0l-116.5-116.5c-3.25-3.25-3.25-8.25 0-11.5l116.5-116.5c3.25-3.25 8.25-3.25 11.5 0l12.5 12.5c3.25 3.25 3.25 8.25 0 11.5l-98.25 98.25 98.25 98.25c3.25 3.25 3.25 8.25 0 11.5zM302 83l-93.25 322.75c-1.25 4.25-5.75 6.75-9.75 5.5l-15.5-4.25c-4.25-1.25-6.75-5.75-5.5-10l93.25-322.75c1.25-4.25 5.75-6.75 9.75-5.5l15.5 4.25c4.25 1.25 6.75 5.75 5.5 10zM466.25 245.75l-116.5 116.5c-3.25 3.25-8.25 3.25-11.5 0l-12.5-12.5c-3.25-3.25-3.25-8.25 0-11.5l98.25-98.25-98.25-98.25c-3.25-3.25-3.25-8.25 0-11.5l12.5-12.5c3.25-3.25 8.25-3.25 11.5 0l116.5 116.5c3.25 3.25 3.25 8.25 0 11.5z"></path>
</svg>
