<!-- Generated by IcoMoon.io -->
<svg version="1.1" xmlns="http://www.w3.org/2000/svg" width="480" height="448" viewBox="0 0 480 448">
<title></title>
<g id="icomoon-ignore">
</g>
<path fill="#434955" d="M104 320c-22 0-40-18-40-40v-176c0-22 18-40 40-40h272c22 0 40 18 40 40v176c0 22-18 40-40 40h-272zM96 104v176c0 4.25 3.75 8 8 8h272c4.25 0 8-3.75 8-8v-176c0-4.25-3.75-8-8-8h-272c-4.25 0-8 3.75-8 8zM440 336h40v24c0 13.25-18 24-40 24h-400c-22 0-40-10.75-40-24v-24h440zM260 360c2.25 0 4-1.75 4-4s-1.75-4-4-4h-40c-2.25 0-4 1.75-4 4s1.75 4 4 4h40z"></path>
</svg>
